<svg width="146" height="81" viewBox="0 0 146 81" fill="none" xmlns="http://www.w3.org/2000/svg">
<path d="M9.989 74.439C13.1513 78.6298 18.1655 81.0235 23.4151 81L125.433 80.6154C125.433 80.6154 145.247 79.8227 134.944 59.6139C134.944 59.6139 153.564 57.236 142.469 34.249C142.469 34.249 137.321 18.7961 117.9 28.7004C117.9 28.7004 121.07 16.8105 111.167 15.2252C101.264 13.6399 98.0943 19.9812 98.0943 19.9812C98.0943 19.9812 96.9095 6.90626 86.2062 6.90626C75.503 6.90626 71.5482 11.6622 71.5482 11.6622C71.5482 11.6622 69.9631 -2.99801 49.7572 0.565018C29.5514 4.12805 33.9064 18.0034 33.9064 18.0034C33.9064 18.0034 11.7153 12.0625 2.60504 30.2857C-6.50525 48.5168 11.323 57.6284 11.323 57.6284C11.323 57.6284 5.20237 65.5314 9.34555 73.4815C9.34555 73.4815 9.56527 73.8504 10.0047 74.439H9.989Z" fill="#F36C77"/>
</svg>
