<svg width="29" height="27" viewBox="0 0 29 27" fill="none" xmlns="http://www.w3.org/2000/svg">
<g style="mix-blend-mode:luminosity">
<path d="M6.11182 12.7388L6.12219 17.9519C6.12267 18.1765 6.19617 18.3949 6.3316 18.5741L7.15783 17.9498C6.3316 18.5741 6.3316 18.5741 6.3316 18.5741L6.33305 18.5761L6.33472 18.5783L6.3387 18.5835L6.34924 18.597L6.38075 18.6364C6.40637 18.6679 6.44136 18.7097 6.48587 18.7603C6.57486 18.8614 6.70219 18.998 6.86938 19.1579C7.20352 19.4775 7.69866 19.892 8.36648 20.3028C9.70885 21.1287 11.73 21.9272 14.4991 21.9272C17.2681 21.9272 19.2919 21.1287 20.6367 20.3034C21.3058 19.8928 21.8023 19.4785 22.1375 19.1593C22.305 18.9994 22.4329 18.8631 22.5221 18.7621C22.5669 18.7116 22.6019 18.6698 22.6276 18.6384L22.6593 18.5991L22.6698 18.5855L22.6738 18.5803L22.6754 18.5782C22.6754 18.5782 22.6769 18.5762 21.8522 17.9497L22.6769 18.5762C22.8138 18.396 22.8879 18.1759 22.8879 17.9495L22.8869 12.7383L15.9399 15.7483C15.0204 16.1466 13.9771 16.1466 13.0576 15.7483L6.11182 12.7388Z" fill="#8FBFFA"/>
<path fill-rule="evenodd" clip-rule="evenodd" d="M3.51179 6.6665C4.08379 6.6665 4.5475 7.24613 4.5475 7.96115V22.2347C4.5475 22.9498 4.08379 23.5294 3.51179 23.5294C2.93978 23.5294 2.47607 22.9498 2.47607 22.2347V7.96115C2.47607 7.24613 2.93978 6.6665 3.51179 6.6665Z" fill="#2859C5"/>
<path fill-rule="evenodd" clip-rule="evenodd" d="M3.51314 21.0186C2.09525 21.0186 0.945801 22.168 0.945801 23.5859C0.945801 25.0038 2.09525 26.1532 3.51314 26.1532C4.93106 26.1532 6.08049 25.0038 6.08049 23.5859C6.08049 22.168 4.93106 21.0186 3.51314 21.0186Z" fill="#8FBFFA"/>
<path fill-rule="evenodd" clip-rule="evenodd" d="M14.9118 0.0853693C14.6491 -0.0284564 14.3509 -0.0284564 14.0882 0.0853693L0.623954 5.91913C0.245158 6.08325 0 6.45667 0 6.86949C0 7.28231 0.245158 7.65572 0.623954 7.81984L14.0882 13.6536C14.3509 13.7674 14.6491 13.7674 14.9118 13.6536L28.3761 7.81984C28.7547 7.65572 29 7.28231 29 6.86949C29 6.45667 28.7547 6.08325 28.3761 5.91913L14.9118 0.0853693Z" fill="#8FBFFA"/>
<path fill-rule="evenodd" clip-rule="evenodd" d="M6.11182 10.1979L14.0879 13.6538C14.3506 13.7676 14.6488 13.7676 14.9115 13.6538L22.8879 10.1978V17.3359L22.8869 12.7383L15.9399 15.7482C15.0204 16.1466 13.9771 16.1466 13.0576 15.7482L6.11182 12.7388V10.1979ZM6.11182 12.7388L6.12097 17.3359H6.11182V12.7388Z" fill="#2859C5"/>
</g>
</svg>
