<svg width="27" height="26" viewBox="0 0 27 26" fill="none" xmlns="http://www.w3.org/2000/svg">
<path d="M3.85645 23.1431V11.5716L13.4993 1.92871L23.1422 11.5716V23.1431C23.1422 24.2082 22.2788 25.0717 21.2136 25.0717H5.78502C4.71991 25.0717 3.85645 24.2082 3.85645 23.1431Z" fill="#C8B0E4"/>
<path fill-rule="evenodd" clip-rule="evenodd" d="M12.1363 0.564863C12.8895 -0.188288 14.1106 -0.188288 14.8637 0.564863L26.4352 12.1363C27.1883 12.8895 27.1883 14.1106 26.4352 14.8638C25.6821 15.6169 24.4609 15.6169 23.7078 14.8638L13.5 4.656L3.29229 14.8638C2.53912 15.6169 1.31802 15.6169 0.564866 14.8638C-0.188289 14.1106 -0.188289 12.8895 0.564866 12.1363L12.1363 0.564863Z" fill="#A054FF"/>
</svg>
