<svg width="25" height="26" viewBox="0 0 25 26" fill="none" xmlns="http://www.w3.org/2000/svg">
<g style="mix-blend-mode:luminosity">
<path d="M12.385 15.7358C9.6397 15.7358 6.9653 16.6076 4.74738 18.2256C2.52946 19.8435 0.882623 22.1239 0.0442873 24.7381C-0.0461381 25.0201 0.0035855 25.3283 0.178099 25.5675C0.352611 25.8068 0.63091 25.9483 0.927029 25.9483H23.843C24.139 25.9483 24.4173 25.8068 24.592 25.5675C24.7665 25.3283 24.8161 25.0201 24.7257 24.7381C23.8875 22.1239 22.2405 19.8435 20.0227 18.2256C17.8047 16.6076 15.1303 15.7358 12.385 15.7358Z" fill="#2859C5"/>
<path d="M12.3858 0C7.5425 0 3.61621 3.92629 3.61621 8.76962C3.61621 13.613 7.5425 17.5392 12.3858 17.5392C17.2292 17.5392 21.1554 13.613 21.1554 8.76962C21.1554 3.92629 17.2292 0 12.3858 0Z" fill="#8FBFFA"/>
<path fill-rule="evenodd" clip-rule="evenodd" d="M4.03799 6.12331C5.179 2.60432 8.48354 0.0581055 12.3852 0.0581055C16.6605 0.0581055 20.2197 3.11514 20.9998 7.16217C21.0519 7.43269 20.9811 7.71241 20.8065 7.92544C20.6316 8.13849 20.3713 8.26278 20.0958 8.26462L20.037 8.26482C17.8346 8.26482 15.8252 7.43393 14.3068 6.07045C12.7884 7.43397 10.779 8.26488 8.5765 8.26488C7.09323 8.26488 5.69528 7.88765 4.47617 7.2232C4.08452 7.00973 3.90042 6.54761 4.03799 6.12331ZM9.2988 10.3709C9.86932 10.0809 10.5669 10.3084 10.8568 10.8789C11.0256 11.211 11.563 11.5523 12.3859 11.5523C13.2088 11.5523 13.7462 11.211 13.915 10.8789C14.2049 10.3084 14.9025 10.0809 15.473 10.3709C16.0435 10.6608 16.271 11.3584 15.981 11.9289C15.264 13.3397 13.6822 13.8699 12.3859 13.8699C11.0895 13.8699 9.50778 13.3397 8.79077 11.9289C8.50083 11.3584 8.72827 10.6608 9.2988 10.3709Z" fill="#2859C5"/>
</g>
</svg>
